<svg width="24" height="24" viewBox="0 0 24 24" fill="none" xmlns="http://www.w3.org/2000/svg">
<path d="M13.0435 0H10.9565V1.5652H13.0435V0Z" fill="#03E1E4"/>
<path d="M9.39128 3.13048H7.82608V4.69569H9.39128V3.13048Z" fill="#03E1E4"/>
<path d="M7.82608 4.69569L6.26092 4.6957V6.26091H7.82612L7.82608 4.69569Z" fill="#03E1E4"/>
<path d="M6.26092 6.26091H4.69571V7.82611H6.26092V6.26091Z" fill="#03E1E4"/>
<path d="M4.69571 7.82611L3.13049 7.82607V9.39127H4.69569L4.69571 7.82611Z" fill="#03E1E4"/>
<path d="M3.13049 9.39127L1.56521 9.39128V10.9565H3.13041L3.13049 9.39127Z" fill="#03E1E4"/>
<path d="M1.56521 10.9565H0V12.5217H1.5652L1.56521 10.9565Z" fill="#03E1E4"/>
<path d="M16.1739 0V3.13045H14.6087V4.69565H16.1739V6.26085H17.7392V1.5652H19.3044V9.3913H20.8696V0H16.1739Z" fill="#03E1E4"/>
<path d="M14.6087 1.56521L13.0435 1.5652V3.13041L14.6087 3.13045L14.6087 1.56521Z" fill="#03E1E4"/>
<path d="M10.9565 1.5652L9.3913 1.56521L9.39128 3.13048L10.9565 3.13041V1.5652Z" fill="#03E1E4"/>
<path d="M22.4347 9.39128L20.8696 9.3913L20.8695 10.9565H22.4347V9.39128Z" fill="#03E1E4"/>
<path d="M24 10.9565H22.4347L22.4348 12.5217H24V10.9565Z" fill="#03E1E4"/>
<path d="M20.8696 12.5217L20.8695 10.9565L19.3044 10.9565L19.3044 9.3913L17.7391 9.39133V7.82613H16.1739L16.1739 6.26085L14.6087 6.26089L14.6087 4.69565L13.0435 4.69569L13.0435 3.13041H10.9565L10.9565 4.69569H9.39128L9.39132 6.26089L7.82612 6.26091L7.82612 7.82613L6.26092 7.82611L6.26087 9.39133L4.69569 9.39127L4.69566 10.9565L3.13041 10.9565L3.13046 12.5217L1.5652 12.5217L1.56521 24H8.86955V14.6087H15.1305V24H22.4348L22.4348 12.5217L20.8696 12.5217Z" fill="#03E1E4"/>
</svg>
