<svg xmlns="http://www.w3.org/2000/svg" width="20" height="23" fill="none" viewBox="0 0 20 23">
    <path fill="#03E1E4" d="M8.49 9.428h1.497v1.49H8.49v1.491H6.991v-1.49H0V9.428H6.99v-1.49H8.49v1.49zM6.994 12.41v1.491H5.496v-1.49h1.498zM6.994 6.447v1.491H5.496v-1.49h1.498z"/>
    <path fill="#03E1E4" d="M3.021 0H20v19.38h-1.498v.497h-1.498v.497h-1.498v.497h-1.499v.497H12.51v.496h-1.498v.497H9.513v.497H8.015V19.38H3.02v-6.957h1.498v5.466h3.496v-4.555h1.383v-1.612h1.62V8.5h-1.62V7.033H8.015v-2.56h1.498v-.498h1.498v-.497h1.498v-.496h1.498v-.497h1.499v-.497h1.498V1.49H4.519v6.46H3.021V0z"/>
</svg>
