<svg xmlns="http://www.w3.org/2000/svg" width="24" height="17" fill="none" viewBox="0 0 24 17">
    <path fill="#03E1E4" fill-rule="evenodd" d="M1.36 2.04H.68V3.4H0v10.2h.68v1.36h.68v.68h.68v.68h.68V17h3.4v-.68h.68v-1.36h.68v-2.72h.68v-.68h6.8v.68h.68v2.72h.68v1.36H17V17h3.4v-.68h.68v-.68h.68v-.68h.68V13.6h.68V3.4h-.68V2.04h-.68v-.68h-.68V.68h-.68V0H17v.68h-.68v.68h-.68v.68H7.48v-.68H6.8V.68h-.68V0h-3.4v.68h-.68v.68h-.68v.68zm2.04 0h2.04V3.4h-.68v.68h-.68V3.4H3.4V2.04zM1.36 6.12V4.08h1.36v.68h.68v.68h-.68v.68H1.36zm4.08-1.36h.68v-.68h1.36v2.04H6.12v-.68h-.68v-.68zm-.68 1.36h-.68v.68H3.4v1.36h2.04V6.8h-.68v-.68zm4.08 1.36h2.04v1.36H8.84V7.48zm5.44 0h-2.04v1.36h2.04V7.48zm5.44-5.44h-2.04v2.04h-2.04v2.04h2.04v2.04h2.04V6.12h2.04V4.08h-2.04V2.04zm0 2.04v2.04h-2.04V4.08h2.04z" clip-rule="evenodd"/>
</svg>
