<svg width="115" height="160" viewBox="0 0 115 160" fill="none" xmlns="http://www.w3.org/2000/svg">
<path d="M100 140H15V135H20V125H15V85H20V65H15V50H20V45H40V50H75V45H95V50H100V65H95V85H100V125H95V135H100V140Z" fill="#613819"/>
<path d="M20 50H40V55H75V50H95V65H90V85H95V125H90V130H25V125H20V85H25V65H20V50Z" fill="#C7731D"/>
<path d="M20 50V65H25V60H30V55H35V50H20Z" fill="#FFB4C5"/>
<path d="M95 50V65H90V60H85V55H80V50H95Z" fill="#FFB4C5"/>
<path d="M75 100V105H85V100H75Z" fill="#FFB4C5"/>
<path d="M95 135V140H85V135H95Z" fill="#FFB4C5"/>
<path d="M20 135V140H30V135H20Z" fill="#FFB4C5"/>
<path d="M30 100V105H40V100H30Z" fill="#FFB4C5"/>
<path d="M30 90H25V95H90V90H85V65H90V60H85V55H65V60H60V70H55V60H50V55H30V60H25V65H30V90Z" fill="#FF9929"/>
<path d="M30 135H85V120H30V135Z" fill="#FF9929"/>
<path d="M25 120V95H30V90H35V85H80V90H85V95H90V120H85V125H80V130H35V125H30V120H25Z" fill="white"/>
<path d="M50 80V65H35V80H50Z" fill="#C7731D"/>
<path d="M45 80V70H35V80H45Z" fill="#070200"/>
<path d="M45 75H40V70H45V75Z" fill="white"/>
<path d="M80 80V65H65V80H80Z" fill="#C7731D"/>
<path d="M75 80V70H65V80H75Z" fill="#070200"/>
<path d="M75 75H70V70H75V75Z" fill="white"/>
<path d="M45 85V95H70V85H45Z" fill="#613819"/>
<path d="M65 85V90H50V85H65Z" fill="#FFB4C5"/>
<path d="M60 90H55V85H60V90Z" fill="#933B1C"/>
<path d="M60 95H55V90H60V95Z" fill="white"/>
<path d="M5 75H20V85H25V90H30V95H35V100H80V95H85V90H90V85H95V75H110V90H105V95H100V130H95V135H100V140H95V135H20V140H15V135H20V130H15V95H10V90H5V75Z" fill="#201433"/>
<path d="M95 120V130H20V120H30V105H25V100H15V90H10V85H5V80H10V85H15V90H25V95H30V100H35V105H80V100H85V95H90V90H100V100H90V105H85V120H95Z" fill="#39225A"/>
<path d="M110 80V75H105V80H100V85H90V90H85V95H80V100H75V105H80V100H85V95H90V90H100V85H105V80H110Z" fill="#543385"/>
<path d="M40 100H35V105H40V100Z" fill="#543385"/>
<path d="M30 95V100H35V95H30Z" fill="#543385"/>
<path d="M30 90H25V95H30V90Z" fill="#543385"/>
<path d="M15 85V90H25V85H15Z" fill="#543385"/>
<path d="M15 80H10V85H15V80Z" fill="#543385"/>
<path d="M5 75V80H10V75H5Z" fill="#543385"/>
<path d="M75 115H90V105H85V100H80V105H75V115Z" fill="#CBCBCB"/>
<rect width="5" height="5" transform="matrix(-1 0 0 1 90 110)" fill="#A9A9A9"/>
<path d="M80 105V110H90V105H80Z" fill="white"/>
<path d="M40 115H25V105H30V100H35V105H40V115Z" fill="#CBCBCB"/>
<rect x="25" y="110" width="5" height="5" fill="#A9A9A9"/>
<path d="M35 105V110H25V105H35Z" fill="white"/>
<path d="M30 145V120H35V115H40V110H45V105H70V110H75V115H80V120H85V145H80V150H75V155H70V160H45V155H40V150H35V145H30Z" fill="#34ACC0"/>
<path d="M35 140H30V120H85V140H80V145H75V150H70V155H45V150H40V145H35V140Z" fill="#3ABFD6"/>
<path d="M70 145V150H45V145H40V140H35V135H30V120H35V125H40V130H45V135H70V130H75V125H80V120H85V135H80V140H75V145H70Z" fill="#3DC8E0"/>
<path d="M70 130V135H45V130H40V125H35V120V115H80V120V125H75V130H70Z" fill="#41D5EE"/>
<path d="M40 110V115H45V120H50V125H65V120H70V115H75V110H70V105H45V110H40Z" fill="#48E4FF"/>
<path d="M60 110H55V115H60V110Z" fill="white"/>
<path d="M0 50V45H5V40H25V5H30V0H85V5H90V40H110V45H115V50H110V55H90V60H25V55H5V50H0Z" fill="#543385"/>
<path d="M85 5H30V10H85V5Z" fill="#4A2D75"/>
<path d="M80 15H35V45H80V15Z" fill="#4A2D75"/>
<path d="M5 45H25V50H90V45H110V50H90V55H25V50H5V45Z" fill="#4A2D75"/>
<path d="M20 40H25V10H30V40H25V45H20V40Z" fill="#39225A"/>
<path d="M85 10H90V40H95V45H90V40H85V10Z" fill="#39225A"/>
<path d="M95 40H110V45H95V40Z" fill="#412868"/>
<path d="M90 45H85V15H80V45H85V50H90V45Z" fill="#412868"/>
<path d="M35 15H30V45H35V15Z" fill="#412868"/>
<path d="M30 45H25V50H30V45Z" fill="#412868"/>
<path d="M5 40H20V45H5V40Z" fill="#412868"/>
</svg>
